<?xml version="1.0" encoding="UTF-8" standalone="no"?>
<!-- Created with Inkscape (http://www.inkscape.org/) -->

<svg width="259.29166mm" height="39.6875mm" viewBox="0 0 259.29166 39.6875" version="1.1" id="svg5"
    inkscape:version="1.1 (c68e22c387, 2021-05-23)" sodipodi:docname="UraniumText.svg"
    xmlns:inkscape="http://www.inkscape.org/namespaces/inkscape"
    xmlns:sodipodi="http://sodipodi.sourceforge.net/DTD/sodipodi-0.dtd" xmlns="http://www.w3.org/2000/svg"
    xmlns:svg="http://www.w3.org/2000/svg">
    <sodipodi:namedview id="namedview7" pagecolor="#505050" bordercolor="#ffffff" borderopacity="1"
        inkscape:pageshadow="0" inkscape:pageopacity="0" inkscape:pagecheckerboard="1" inkscape:document-units="mm"
        showgrid="false" inkscape:zoom="1.4823793" inkscape:cx="522.47085" inkscape:cy="14.50371"
        inkscape:window-width="1920" inkscape:window-height="1017" inkscape:window-x="1912" inkscape:window-y="-8"
        inkscape:window-maximized="1" inkscape:current-layer="layer1" />
    <defs id="defs2" />
    <g inkscape:label="Layer 1" inkscape:groupmode="layer" id="layer1" transform="translate(27.195107,-43.340145)">
        <path style="fill:#00ff00;fill-opacity:1;stroke-width:0.264583"
            d="m -17.667539,79.840646 c -4.201204,-2.889504 -7.391875,-8.411231 -7.828507,-13.547897 l -0.15181,-1.785937 h 6.785249 6.78525 l 0.0058,0.595312 c 0.0096,0.978835 1.022882,2.926702 1.9257,3.701669 0.7818372,0.67112 0.8169064,0.769617 0.471019,1.322917 -0.2055408,0.328795 -1.616584,2.740935 -3.135651,5.36031 -1.519067,2.619375 -2.898285,4.900949 -3.06493,5.070163 -0.22952,0.233061 -0.664081,0.05931 -1.79213,-0.716537 z M 2.5299703,80.052702 C 2.2444744,79.57887 0.73510594,77.00494 -0.82418156,74.332863 l -2.83506624,-4.858325 0.9001893,-0.742012 c 0.8800435,-0.725407 1.5986682,-2.039931 1.91234504,-3.49811 l 0.1565195,-0.727604 H 5.9571552 12.604507 l -0.145902,2.05052 c -0.179056,2.51648 -1.159364,5.354215 -2.728674,7.898813 -1.165842,1.890385 -4.3324251,5.129221 -5.859727,5.993432 l -0.8211503,0.46464 z M 30.20573,73.699001 c -1.80468,-0.969359 -3.789344,-2.625498 -4.865804,-4.781509 0,0 -0.60207,-1.956526 -0.631041,-3.344521 -0.129285,-6.193982 -0.06618,-6.257086 -0.06618,-6.257086 V 51.51676 l 0.945427,-0.03155 0.945427,-0.03155 0.0061,7.799126 c 0,0 -0.02213,4.232477 0.05857,6.346541 0,0 0.250919,1.812685 0.883459,2.997449 2.724059,5.10223 11.143154,5.491877 13.991139,-0.636934 0.550204,-1.184029 0.499623,-3.402694 0.51206,-8.795413 l -0.07661,-7.622897 0.965019,-0.04394 0.93347,0.01917 -0.09926,7.666833 c 0.279569,6.784149 -0.0024,7.771304 -0.558715,9.153593 -1.754573,4.359476 -6.609417,7.54054 -12.943046,5.36182 z m 26.767178,0.450657 c -0.215735,-0.704919 -0.06648,-5.424835 0.006,-11.463541 l -0.120183,-11.137801 5.086406,-0.103982 c 5.985507,-0.122363 7.202999,0.261967 9.184995,2.243964 1.611371,1.61137 2.347621,3.956401 2.057428,5.891546 -0.296055,1.974235 -1.660799,4.08912 -3.043226,5.0048 -0.673057,0.445816 -1.508132,0.715918 -1.701463,0.715918 -0.193333,0 -0.351514,0.09809 -0.351514,0.09809 -0.05197,0.0145 0,0 2.639641,4.312037 2.68088,4.379405 2.563795,4.531558 2.402934,4.537865 -1.078521,0.04228 -1.326289,0.02417 -1.655348,0.02417 -0.497811,0 -0.692428,-0.403533 -2.542882,-3.983825 l -2.488867,-4.449219 -3.838865,-0.005 -4.028175,-0.005 -0.07287,4.167188 c -0.07661,4.381254 0.390421,4.231709 -0.669359,4.220339 -0.331346,-0.0036 -0.86469,-0.06755 -0.86469,-0.06755 z M 68.223682,63.739079 c 1.969008,-0.914477 2.866344,-2.300608 3.127035,-4.501735 0.270619,-2.284956 -0.865866,-4.492377 -3.025297,-5.594037 -0.876401,-0.447105 -1.573112,-0.513579 -5.382863,-0.513579 h -4.376166 v 5.55625 5.55625 l 4.299479,-0.0058 c 3.625334,-0.0049 4.465423,-0.08288 5.357812,-0.497338 z m 18.2521,10.442698 c 1.362184,-3.230996 2.156109,-5.379089 4.950972,-11.503768 4.923001,-10.7883 5.104553,-11.135781 5.818252,-11.135781 0.63239,0 0.8442,0.215384 1.49616,1.521354 1.621714,3.248577 9.724654,21.265508 9.724654,21.265508 l -1.52299,-0.05636 -1.20976,-2.489878 -1.24861,-2.513541 H 97.282976 90.08148 L 89.341279,70.9187 c -1.135932,2.531196 0,0 -1.667048,3.295129 l -1.198449,-0.03205 z m 17.265278,-6.698403 c -0.0552,-0.10914 -1.51369,-3.265355 -3.24118,-7.013809 -1.727474,-3.748454 -3.217604,-6.725017 -3.311393,-6.614583 -0.09379,0.110433 -0.806889,1.629538 -1.584672,3.375788 -0.777782,1.74625 -2.159883,4.812109 -3.071339,6.813021 l -1.657191,3.638021 h 6.483041 c 3.565674,0 6.437904,-0.0893 6.382734,-0.198438 z m 18.58991,-4.564062 V 51.542228 h 0.75406 c 0.68601,0 1.42036,0.905644 8.13594,10.03369 l 7.38188,10.033691 0.13229,-9.967545 0.13229,-9.967544 h 0.66146 0.66146 v 11.244792 11.244791 l -0.79375,0.07697 c -0.76187,0.07387 -1.08605,-0.324716 -8.06979,-9.921876 l -7.27605,-9.998842 -0.14037,9.921875 c -0.0772,5.457032 -0.1665,9.951641 -0.19843,9.988021 -0.0319,0.03638 -0.35573,0.06615 -0.71953,0.06615 h -0.66146 z m 31.08615,10.78177 c -0.0796,-0.327421 -0.11165,-5.417343 -0.0712,-11.310937 l 0.0736,-10.715625 0.72761,-0.08372 0.7276,-0.08372 v 11.394658 11.394657 h -0.65642 c -0.46144,0 -0.69941,-0.176821 -0.80118,-0.595313 z m 46.57506,0.489146 c -0.24869,-0.648076 -0.15914,-21.940882 0.0929,-22.338459 0.12471,-0.196729 0.54858,-0.313404 0.96119,-0.264584 0.69467,0.08219 1.01362,0.676298 5.41961,10.094913 2.57482,5.504169 4.78171,10.028543 4.90421,10.054166 0.12249,0.02564 2.32674,-4.477788 4.89834,-10.007579 l 4.67562,-10.054167 h 0.89814 0.89814 V 62.91931 74.164101 h -0.66145 -0.66146 l -0.13229,-9.525 -0.1323,-9.525 -1.21124,2.513542 c -0.66619,1.382448 -2.62245,5.549635 -4.34724,9.260417 -1.7248,3.710781 -3.24814,6.895703 -3.38521,7.077604 -0.13707,0.181901 -0.51772,0.330729 -0.84589,0.330729 -0.32816,0 -0.70983,-0.148828 -0.84815,-0.330729 -0.13832,-0.181901 -2.12663,-4.378854 -4.41848,-9.326563 -2.29184,-4.947708 -4.27684,-9.108942 -4.41111,-9.247187 -0.14925,-0.153666 -0.24413,3.471078 -0.24413,9.326562 v 9.577917 h -0.63315 c -0.34824,0 -0.72773,0.12402 -0.81606,-0.106165 z M -7.6480941,68.103918 c -1.7948759,-0.652262 -2.5771799,-1.750776 -2.5771799,-3.618883 0,-3.435618 4.3228031,-5.061535 6.5904433,-2.478835 1.4828276,1.688848 1.3205788,3.888786 -0.3980963,5.397803 -0.5055015,0.443837 -1.063779,0.808601 -1.2406164,0.810588 -0.1768374,0.002 -0.5596477,0.05923 -0.8506894,0.127207 -0.2910416,0.06798 -0.9767792,-0.03907 -1.5238613,-0.23788 z M -12.37292,54.511541 c -1.656451,-2.847011 -3.166791,-5.458339 -3.356311,-5.802951 -0.333979,-0.607289 -0.291174,-0.650786 1.391047,-1.413541 2.527682,-1.146106 4.6520191,-1.565313 7.9546858,-1.569743 2.1260895,-0.0029 3.4401447,0.14141 4.8520983,0.532683 1.91944924,0.531906 4.5352919,1.69807 4.5352919,2.021869 0,0.09256 -1.4585156,2.656622 -3.24114576,5.697908 -3.05170884,5.206418 -3.27980634,5.520284 -3.90260404,5.370049 -1.7252288,-0.416169 -3.359578,-0.437783 -4.2721209,-0.0565 l -0.9492123,0.396606 z m 185.48415,19.232521 c -1.05387,-0.30458 -3.78934,-2.625498 -4.8658,-4.781509 0,0 -0.60207,-1.956526 -0.63104,-3.344521 -0.12929,-6.193982 -0.0662,-6.257086 -0.0662,-6.257086 v -7.799125 l 0.94543,-0.03155 0.94542,-0.03155 0.006,7.799126 c 0,0 -0.0221,4.232477 0.0586,6.346541 0,0 0.25092,1.812685 0.88346,2.997449 2.72406,5.10223 11.14316,5.491876 13.99114,-0.636934 0.55021,-1.184029 0.49963,-3.402694 0.51206,-8.795413 l -0.0766,-7.622897 0.96502,-0.04394 0.93347,0.01917 -0.0993,7.666834 c 0.27957,6.784149 -0.002,7.771304 -0.55872,9.153593 -4.07488,8.509266 -12.94304,5.361821 -12.94304,5.361821 z"
            id="path6558"
            sodipodi:nodetypes="csccccssssccsscsscccssscsccscccccssscccccscccscsssssssssscccssccsssscccssscsssccccccsssccssscsscssscccccccsscsssccsccccccssscssssscccccccccsssssssscsssssscssssscssssscssccsccccccsscccccccc" />
    </g>
</svg>